<?xml version="1.0" encoding="utf-8"?>
<!-- Generator: Adobe Illustrator 22.1.0, SVG Export Plug-In . SVG Version: 6.00 Build 0)  -->
<svg version="1.1" id="Layer_1" xmlns="http://www.w3.org/2000/svg" xmlns:xlink="http://www.w3.org/1999/xlink" x="0px" y="0px"
	 viewBox="0 0 1000 240" enable-background="new 0 0 1000 240" xml:space="preserve">
<g>
	<g>
		<g>
			<g>
				<g>
					<linearGradient id="SVGID_1_" gradientUnits="userSpaceOnUse" x1="228.6022" y1="-6.8653" x2="63.5191" y2="294.0828">
						<stop  offset="0" style="stop-color:#36DEF9"/>
						<stop  offset="0.0482" style="stop-color:#39D3F9"/>
						<stop  offset="0.3915" style="stop-color:#5087FB"/>
						<stop  offset="0.6755" style="stop-color:#6050FC"/>
						<stop  offset="0.8861" style="stop-color:#6A2EFD"/>
						<stop  offset="1" style="stop-color:#6E21FD"/>
					</linearGradient>
					<path fill="url(#SVGID_1_)" d="M213.751,117.39l-11.454-11.454l0.914-0.914c11.099-11.103,11.099-29.163,0-40.265
						c-11.099-11.096-29.156-11.103-40.269,0l-25.86,25.86L125.63,79.162l25.86-25.86c8.435-8.438,19.655-13.086,31.586-13.086
						c11.935,0,23.154,4.648,31.59,13.086c8.438,8.435,13.086,19.655,13.086,31.586s-4.648,23.151-13.086,31.586L213.751,117.39z"/>
				</g>
				<g>
					<linearGradient id="SVGID_2_" gradientUnits="userSpaceOnUse" x1="154.0695" y1="-47.7498" x2="-11.0137" y2="253.1983">
						<stop  offset="0" style="stop-color:#36DEF9"/>
						<stop  offset="0.0482" style="stop-color:#39D3F9"/>
						<stop  offset="0.3915" style="stop-color:#5087FB"/>
						<stop  offset="0.6755" style="stop-color:#6050FC"/>
						<stop  offset="0.8861" style="stop-color:#6A2EFD"/>
						<stop  offset="1" style="stop-color:#6E21FD"/>
					</linearGradient>
					<path fill="url(#SVGID_2_)" d="M48.171,116.599C30.63,99.057,30.63,70.72,48.048,53.302
						c8.435-8.438,19.655-13.083,31.59-13.083c11.932,0,23.151,4.645,31.586,13.083l25.86,25.86L125.63,90.616l-25.86-25.86
						c-11.109-11.103-29.166-11.096-40.269,0c-11.099,11.103-11.099,29.163,0,40.265L48.171,116.599z"/>
				</g>
			</g>
			<g>
				<linearGradient id="SVGID_3_" gradientUnits="userSpaceOnUse" x1="214.3481" y1="-14.6843" x2="49.2649" y2="286.2637">
					<stop  offset="0" style="stop-color:#36DEF9"/>
					<stop  offset="0.0482" style="stop-color:#39D3F9"/>
					<stop  offset="0.3915" style="stop-color:#5087FB"/>
					<stop  offset="0.6755" style="stop-color:#6050FC"/>
					<stop  offset="0.8861" style="stop-color:#6A2EFD"/>
					<stop  offset="1" style="stop-color:#6E21FD"/>
				</linearGradient>
				<path fill="url(#SVGID_3_)" d="M131.357,199.784l-22.651-22.651c-10.824-10.824-16.785-25.217-16.785-40.522
					c0-15.308,5.961-29.701,16.785-40.525l22.651-22.651l22.651,22.651c10.824,10.824,16.785,25.217,16.785,40.525
					c0,15.304-5.961,29.698-16.785,40.522L131.357,199.784z M131.357,96.343l-11.197,11.197c-16.029,16.029-16.029,42.11,0,58.139
					l11.197,11.197l11.197-11.197c16.029-16.029,16.029-42.11,0-58.139L131.357,96.343z"/>
			</g>
		</g>
		<g>
			<g>
				<g>
					<linearGradient id="SVGID_4_" gradientUnits="userSpaceOnUse" x1="150.421" y1="-49.7511" x2="-14.6621" y2="251.1969">
						<stop  offset="0" style="stop-color:#36DEF9"/>
						<stop  offset="0.0482" style="stop-color:#39D3F9"/>
						<stop  offset="0.3915" style="stop-color:#5087FB"/>
						<stop  offset="0.6755" style="stop-color:#6050FC"/>
						<stop  offset="0.8861" style="stop-color:#6A2EFD"/>
						<stop  offset="1" style="stop-color:#6E21FD"/>
					</linearGradient>
					<path fill="url(#SVGID_4_)" d="M59.23,133.134c-9.176,0-16.64-7.464-16.64-16.64s7.464-16.64,16.64-16.64
						c9.173,0,16.636,7.464,16.636,16.64S68.402,133.134,59.23,133.134z"/>
				</g>
			</g>
			<g>
				<g>
					<linearGradient id="SVGID_5_" gradientUnits="userSpaceOnUse" x1="261.3113" y1="11.0771" x2="96.2282" y2="312.0251">
						<stop  offset="0" style="stop-color:#36DEF9"/>
						<stop  offset="0.0482" style="stop-color:#39D3F9"/>
						<stop  offset="0.3915" style="stop-color:#5087FB"/>
						<stop  offset="0.6755" style="stop-color:#6050FC"/>
						<stop  offset="0.8861" style="stop-color:#6A2EFD"/>
						<stop  offset="1" style="stop-color:#6E21FD"/>
					</linearGradient>
					<path fill="url(#SVGID_5_)" d="M203.484,133.134c-9.173,0-16.636-7.464-16.636-16.64s7.464-16.64,16.636-16.64
						c9.176,0,16.64,7.464,16.64,16.64S212.66,133.134,203.484,133.134z"/>
				</g>
			</g>
		</g>
	</g>
	<g>
		<g>
			<path fill="#2E3E4B" d="M271.67,96.397c4.415,0,8.565,1.105,12.451,3.313c3.883,2.208,6.916,5.204,9.095,8.986
				c2.176,3.785,3.267,7.872,3.267,12.258c0,4.415-1.097,8.542-3.29,12.382c-2.193,3.842-5.181,6.847-8.965,9.011
				c-3.785,2.164-7.955,3.247-12.514,3.247c-6.709,0-12.434-2.389-17.18-7.161c-4.743-4.772-7.115-10.571-7.115-17.395
				c0-7.31,2.68-13.401,8.041-18.273C260.16,98.521,265.565,96.397,271.67,96.397z M271.866,107.449
				c-3.649,0-6.686,1.269-9.112,3.805c-2.426,2.539-3.638,5.785-3.638,9.74c0,4.073,1.197,7.368,3.595,9.892
				c2.397,2.521,5.434,3.785,9.112,3.785c3.675,0,6.732-1.275,9.173-3.828c2.441-2.55,3.661-5.834,3.661-9.849
				c0-4.012-1.197-7.273-3.595-9.783C278.664,108.704,275.599,107.449,271.866,107.449z"/>
			<path fill="#2E3E4B" d="M313.322,79.543v23.221c2.121-2.121,4.415-3.713,6.882-4.775c2.464-1.059,5.1-1.592,7.912-1.592
				c6.105,0,11.294,2.308,15.565,6.925c4.271,4.617,6.407,10.534,6.407,17.758c0,6.968-2.208,12.793-6.623,17.482
				c-4.415,4.686-9.645,7.031-15.694,7.031c-2.694,0-5.204-0.481-7.526-1.442c-2.32-0.961-4.628-2.53-6.922-4.709v4.945h-11.654
				V79.543H313.322z M325.664,107.233c-3.698,0-6.766,1.263-9.201,3.785c-2.438,2.524-3.655,5.82-3.655,9.892
				c0,4.156,1.217,7.518,3.655,10.082c2.435,2.567,5.503,3.848,9.201,3.848c3.583,0,6.6-1.304,9.052-3.911s3.675-5.935,3.675-9.976
				c0-4.015-1.203-7.305-3.612-9.869C332.372,108.517,329.333,107.233,325.664,107.233z"/>
			<path fill="#2E3E4B" d="M384.044,104.139l-7.267,7.267c-2.953-2.924-5.635-4.386-8.042-4.386c-1.321,0-2.351,0.279-3.097,0.838
				s-1.117,1.255-1.117,2.087c0,0.63,0.236,1.212,0.708,1.741c0.472,0.53,1.641,1.255,3.506,2.17l4.3,2.15
				c4.527,2.236,7.639,4.516,9.331,6.838c1.692,2.323,2.536,5.045,2.536,8.171c0,4.156-1.525,7.624-4.579,10.404
				c-3.054,2.783-7.144,4.173-12.275,4.173c-6.824,0-12.272-2.668-16.342-7.998l7.224-7.872c1.376,1.606,2.99,2.904,4.838,3.894
				c1.851,0.987,3.491,1.482,4.924,1.482c1.548,0,2.795-0.371,3.742-1.117c0.944-0.745,1.419-1.606,1.419-2.582
				c0-1.805-1.707-3.569-5.117-5.29l-3.957-1.977c-7.567-3.811-11.351-8.585-11.351-14.319c0-3.698,1.425-6.859,4.277-9.483
				c2.852-2.622,6.502-3.934,10.946-3.934c3.036,0,5.897,0.668,8.58,2C379.908,99.73,382.179,101.644,384.044,104.139z"/>
			<path fill="#2E3E4B" d="M424.317,97.603h11.697v40.075c0,7.915-1.592,13.732-4.775,17.459
				c-4.271,5.045-10.707,7.569-19.306,7.569c-4.588,0-8.444-0.573-11.567-1.721c-3.126-1.145-5.762-2.829-7.912-5.051
				c-2.15-2.222-3.742-4.924-4.775-8.105h12.946c1.146,1.318,2.622,2.314,4.427,2.988c1.807,0.673,3.943,1.01,6.41,1.01
				c3.152,0,5.69-0.486,7.61-1.462c1.92-0.976,3.275-2.236,4.064-3.785c0.789-1.548,1.183-4.214,1.183-7.998
				c-2.064,2.064-4.228,3.549-6.493,4.452c-2.265,0.901-4.832,1.353-7.699,1.353c-6.277,0-11.582-2.262-15.91-6.792
				c-4.329-4.53-6.493-10.263-6.493-17.203c0-7.423,2.294-13.386,6.882-17.888c4.156-4.07,9.115-6.107,14.877-6.107
				c2.697,0,5.241,0.495,7.633,1.485c2.395,0.987,4.795,2.616,7.204,4.881V97.603z M412.149,107.363
				c-3.698,0-6.752,1.24-9.161,3.721c-2.406,2.478-3.612,5.598-3.612,9.351c0,3.9,1.232,7.095,3.698,9.59
				c2.467,2.495,5.561,3.742,9.288,3.742c3.641,0,6.646-1.217,9.009-3.655c2.366-2.438,3.549-5.633,3.549-9.59
				c0-3.897-1.189-7.066-3.569-9.504C418.97,108.583,415.902,107.363,412.149,107.363z"/>
			<path fill="#2E3E4B" d="M438.288,97.603h11.996l12.154,29.354l13.409-29.354h12.031l-29.302,63.9h-12.123l9.619-20.607
				L438.288,97.603z"/>
			<path fill="#2E3E4B" d="M490.16,97.603h11.74v4.795c2.662-2.245,5.074-3.805,7.236-4.683c2.159-0.878,4.372-1.318,6.634-1.318
				c4.637,0,8.574,1.62,11.809,4.861c2.717,2.751,4.078,6.821,4.078,12.212v30.917h-11.61v-20.487c0-5.584-0.25-9.291-0.751-11.124
				c-0.501-1.833-1.373-3.229-2.616-4.188c-1.246-0.961-2.783-1.439-4.614-1.439c-2.372,0-4.409,0.794-6.11,2.383
				c-1.704,1.589-2.884,3.788-3.54,6.594c-0.345,1.459-0.515,4.625-0.515,9.492v18.768h-11.74V97.603z"/>
			<path fill="#2E3E4B" d="M573.137,97.603h11.74v46.784h-11.74v-4.945c-2.291,2.179-4.588,3.747-6.893,4.709
				c-2.305,0.961-4.804,1.442-7.495,1.442c-6.041,0-11.268-2.346-15.677-7.031c-4.412-4.688-6.614-10.514-6.614-17.482
				c0-7.224,2.133-13.142,6.398-17.758c4.268-4.617,9.449-6.925,15.548-6.925c2.806,0,5.44,0.532,7.903,1.592
				c2.464,1.062,4.74,2.654,6.83,4.775V97.603z M560.795,107.233c-3.629,0-6.643,1.284-9.043,3.851
				c-2.4,2.564-3.601,5.854-3.601,9.869c0,4.041,1.223,7.368,3.664,9.976c2.444,2.608,5.451,3.911,9.023,3.911
				c3.687,0,6.743-1.281,9.173-3.848c2.426-2.564,3.641-5.926,3.641-10.082c0-4.073-1.215-7.368-3.641-9.892
				C567.582,108.497,564.511,107.233,560.795,107.233z"/>
			<path fill="#2E3E4B" d="M639.213,124.393h-37.712c0.544,3.324,2,5.969,4.363,7.932c2.366,1.966,5.382,2.947,9.052,2.947
				c4.386,0,8.157-1.534,11.311-4.602l9.889,4.645c-2.464,3.497-5.417,6.084-8.859,7.762c-3.439,1.675-7.523,2.515-12.255,2.515
				c-7.339,0-13.314-2.317-17.931-6.945c-4.617-4.631-6.922-10.427-6.922-17.395c0-7.138,2.3-13.064,6.902-17.781
				c4.599-4.714,10.37-7.074,17.306-7.074c7.368,0,13.36,2.36,17.974,7.074c4.617,4.717,6.925,10.946,6.925,18.685L639.213,124.393z
				 M627.473,115.148c-0.774-2.61-2.305-4.732-4.588-6.366c-2.282-1.632-4.93-2.449-7.947-2.449c-3.272,0-6.145,0.918-8.614,2.751
				c-1.551,1.145-2.987,3.169-4.309,6.064H627.473z"/>
			<path fill="#2E3E4B" d="M651.707,134.927c1.462,0,2.711,0.518,3.742,1.548c1.033,1.033,1.548,2.294,1.548,3.785
				c0,1.462-0.515,2.717-1.548,3.762c-1.03,1.048-2.279,1.571-3.742,1.571s-2.708-0.524-3.739-1.571
				c-1.033-1.045-1.548-2.3-1.548-3.762c0-1.491,0.515-2.751,1.548-3.785C648.999,135.445,650.245,134.927,651.707,134.927z"/>
			<path fill="#2E3E4B" d="M710.473,107.32l-4.772,2.967c-4.124-5.474-9.751-8.211-16.88-8.211c-5.699,0-10.43,1.83-14.195,5.497
				c-3.765,3.664-5.647,8.116-5.647,13.357c0,3.408,0.866,6.617,2.596,9.622c1.733,3.008,4.11,5.342,7.132,7.002
				c3.019,1.661,6.407,2.49,10.157,2.49c6.873,0,12.485-2.737,16.837-8.211l4.772,3.137c-2.233,3.367-5.238,5.981-9.009,7.837
				c-3.77,1.856-8.062,2.786-12.877,2.786c-7.397,0-13.533-2.351-18.406-7.054c-4.873-4.7-7.31-10.419-7.31-17.157
				c0-4.53,1.14-8.735,3.419-12.621s5.411-6.916,9.394-9.095c3.986-2.179,8.444-3.27,13.375-3.27c3.097,0,6.084,0.475,8.965,1.419
				c2.881,0.947,5.325,2.179,7.331,3.698C707.364,103.034,709.068,104.971,710.473,107.32z"/>
			<path fill="#2E3E4B" d="M739.783,96.397c7.207,0,13.182,2.61,17.919,7.829c4.309,4.758,6.461,10.39,6.461,16.897
				c0,6.536-2.277,12.249-6.827,17.136c-4.553,4.89-10.404,7.333-17.554,7.333c-7.181,0-13.047-2.444-17.597-7.333
				c-4.553-4.887-6.827-10.6-6.827-17.136c0-6.479,2.153-12.097,6.461-16.854C726.558,99.022,732.548,96.397,739.783,96.397z
				 M739.763,102.289c-5.008,0-9.308,1.851-12.906,5.549c-3.595,3.698-5.394,8.168-5.394,13.415c0,3.385,0.82,6.536,2.461,9.46
				c1.641,2.924,3.854,5.181,6.646,6.772c2.789,1.592,5.854,2.386,9.193,2.386c3.336,0,6.398-0.794,9.19-2.386
				c2.792-1.592,5.005-3.848,6.646-6.772c1.641-2.924,2.461-6.076,2.461-9.46c0-5.247-1.805-9.717-5.417-13.415
				S744.74,102.289,739.763,102.289z"/>
			<path fill="#2E3E4B" d="M770.859,97.603h6.018v8.085c2.095-2.982,4.248-5.16,6.458-6.536c3.042-1.836,6.243-2.754,9.601-2.754
				c2.265,0,4.418,0.446,6.456,1.335c2.038,0.886,3.704,2.069,4.994,3.546c1.292,1.476,2.412,3.592,3.359,6.343
				c2.003-3.67,4.504-6.459,7.506-8.364c3.005-1.905,6.237-2.861,9.696-2.861c3.232,0,6.084,0.817,8.56,2.452
				c2.472,1.635,4.311,3.914,5.512,6.838c1.2,2.924,1.802,7.31,1.802,13.156v25.543h-6.148v-25.543c0-5.014-0.36-8.462-1.074-10.341
				c-0.714-1.877-1.934-3.39-3.664-4.536c-1.73-1.145-3.793-1.721-6.194-1.721c-2.913,0-5.578,0.861-7.993,2.582
				c-2.415,1.718-4.179,4.012-5.293,6.879c-1.114,2.867-1.672,7.656-1.672,14.362v18.319h-6.018v-23.952
				c0-5.647-0.351-9.481-1.053-11.501c-0.705-2.023-1.928-3.641-3.678-4.861c-1.75-1.217-3.828-1.828-6.234-1.828
				c-2.783,0-5.382,0.84-7.805,2.515c-2.423,1.678-4.214,3.934-5.376,6.775c-1.16,2.838-1.741,7.181-1.741,13.029v19.822h-6.018
				V97.603z"/>
			<path fill="#2E3E4B" d="M855.723,134.927c1.462,0,2.711,0.518,3.742,1.548c1.033,1.033,1.548,2.294,1.548,3.785
				c0,1.462-0.515,2.717-1.548,3.762c-1.03,1.048-2.279,1.571-3.742,1.571s-2.708-0.524-3.739-1.571
				c-1.033-1.045-1.548-2.3-1.548-3.762c0-1.491,0.515-2.751,1.548-3.785C853.015,135.445,854.261,134.927,855.723,134.927z"/>
			<path fill="#2E3E4B" d="M915.695,97.603v46.784h-5.935v-8.042c-2.524,3.068-5.353,5.376-8.493,6.925
				c-3.14,1.548-6.571,2.323-10.298,2.323c-6.623,0-12.278-2.403-16.964-7.204c-4.688-4.801-7.031-10.643-7.031-17.522
				c0-6.738,2.366-12.5,7.095-17.289c4.732-4.786,10.422-7.181,17.073-7.181c3.839,0,7.316,0.817,10.427,2.452
				c3.108,1.635,5.84,4.084,8.191,7.354v-8.6H915.695z M891.634,102.202c-3.35,0-6.441,0.826-9.276,2.472
				c-2.835,1.646-5.091,3.957-6.766,6.936c-1.675,2.979-2.513,6.128-2.513,9.449c0,3.293,0.846,6.444,2.536,9.449
				c1.689,3.008,3.957,5.348,6.807,7.023c2.849,1.675,5.906,2.513,9.17,2.513c3.295,0,6.415-0.829,9.365-2.49
				c2.947-1.661,5.218-3.909,6.807-6.743c1.589-2.835,2.383-6.03,2.383-9.578c0-5.414-1.782-9.938-5.348-13.573
				C901.235,104.021,896.846,102.202,891.634,102.202z"/>
			<path fill="#2E3E4B" d="M924.061,97.603h6.021v21.845c0,5.33,0.285,9,0.861,11.006c0.861,2.869,2.504,5.135,4.93,6.795
				c2.426,1.664,5.319,2.495,8.678,2.495c3.359,0,6.208-0.812,8.551-2.432c2.337-1.618,3.955-3.747,4.844-6.384
				c0.602-1.807,0.904-5.632,0.904-11.481V97.603H965v22.962c0,6.45-0.754,11.308-2.259,14.578c-1.505,3.267-3.77,5.825-6.792,7.676
				c-3.025,1.848-6.815,2.775-11.374,2.775s-8.364-0.927-11.418-2.775c-3.054-1.851-5.333-4.429-6.838-7.739
				c-1.502-3.313-2.256-8.292-2.256-14.943V97.603z"/>
		</g>
	</g>
</g>
</svg>
